<?xml version="1.0" encoding="utf-8"?>
<!-- Generator: Adobe Illustrator 23.0.1, SVG Export Plug-In . SVG Version: 6.00 Build 0)  -->
<svg version="1.1" id="Laag_1" xmlns="http://www.w3.org/2000/svg" xmlns:xlink="http://www.w3.org/1999/xlink" x="0px" y="0px"
	 viewBox="0 0 64 64" style="enable-background:new 0 0 64 64;" xml:space="preserve">
<style type="text/css">
	.st0{fill:#FFFFFF;}
	.st1{fill:#FFCE2E;}
</style>
<path d="M12.6,12.6c-10.7,10.7-10.7,28.2,0,38.9s28.2,10.7,38.9,0s10.7-28.2,0-38.9S23.3,1.8,12.6,12.6z"/>
<path class="st0" d="M32,61c-7.5,0-14.9-2.8-20.5-8.5c-11.3-11.3-11.3-29.7,0-41s29.7-11.3,41,0l0,0c11.3,11.3,11.3,29.7,0,41
	C46.8,58.1,39.5,61,32,61z M32,6c-6.6,0-13.3,2.6-18.4,7.6c-10.1,10.1-10.1,26.6,0,36.8s26.6,10.2,36.8,0s10.2-26.6,0-36.8
	C45.3,8.5,38.7,6,32,6z"/>
<path class="st1" d="M34,34.1h11.3c1.2,0,2.1-0.9,2.1-2.1c0.2-1.2-0.7-2.1-1.9-2.1H34.1l-4.2-0.1H18.5c-1.2,0-2.1,0.9-2.1,2.1
	c0,1.2,0.9,2.1,2.1,2.1h11.3L34,34.1z"/>
</svg>
